<mxfile host="app.diagrams.net" agent="Mozilla/5.0 (Windows NT 10.0; Win64; x64) AppleWebKit/537.36 (KHTML, like Gecko) Chrome/131.0.0.0 Safari/537.36" version="26.0.2">
  <diagram name="Strona-1" id="vpuqxNqsXB5j-v4lQUz2">
    <mxGraphModel dx="2049" dy="3449" grid="1" gridSize="10" guides="1" tooltips="1" connect="1" arrows="1" fold="1" page="1" pageScale="1" pageWidth="827" pageHeight="1169" math="0" shadow="0">
      <root>
        <mxCell id="0" />
        <mxCell id="1" parent="0" />
        <mxCell id="cbTGLAT4hZCvBpp4nzG0-10" value="Pool" style="swimlane;childLayout=stackLayout;resizeParent=1;resizeParentMax=0;startSize=20;html=1;" vertex="1" parent="1">
          <mxGeometry x="4" y="-1250" width="1650" height="2140" as="geometry">
            <mxRectangle x="234.00000000000045" y="-190" width="60" height="30" as="alternateBounds" />
          </mxGeometry>
        </mxCell>
        <mxCell id="cbTGLAT4hZCvBpp4nzG0-23" style="edgeStyle=orthogonalEdgeStyle;rounded=0;orthogonalLoop=1;jettySize=auto;html=1;" edge="1" parent="cbTGLAT4hZCvBpp4nzG0-10" source="cbTGLAT4hZCvBpp4nzG0-21" target="cbTGLAT4hZCvBpp4nzG0-22">
          <mxGeometry relative="1" as="geometry" />
        </mxCell>
        <mxCell id="cbTGLAT4hZCvBpp4nzG0-41" style="edgeStyle=orthogonalEdgeStyle;rounded=0;orthogonalLoop=1;jettySize=auto;html=1;exitX=1;exitY=0.5;exitDx=0;exitDy=0;exitPerimeter=0;entryX=0;entryY=0.5;entryDx=0;entryDy=0;" edge="1" parent="cbTGLAT4hZCvBpp4nzG0-10" source="cbTGLAT4hZCvBpp4nzG0-27" target="cbTGLAT4hZCvBpp4nzG0-40">
          <mxGeometry relative="1" as="geometry" />
        </mxCell>
        <mxCell id="cbTGLAT4hZCvBpp4nzG0-42" value="TAK" style="edgeLabel;html=1;align=center;verticalAlign=middle;resizable=0;points=[];" vertex="1" connectable="0" parent="cbTGLAT4hZCvBpp4nzG0-41">
          <mxGeometry x="-0.1617" y="1" relative="1" as="geometry">
            <mxPoint x="-295" y="1" as="offset" />
          </mxGeometry>
        </mxCell>
        <mxCell id="cbTGLAT4hZCvBpp4nzG0-11" value="System" style="swimlane;startSize=20;html=1;" vertex="1" parent="cbTGLAT4hZCvBpp4nzG0-10">
          <mxGeometry y="20" width="550" height="2120" as="geometry">
            <mxRectangle y="20" width="40" height="460" as="alternateBounds" />
          </mxGeometry>
        </mxCell>
        <mxCell id="cbTGLAT4hZCvBpp4nzG0-15" value="Monitorowanie terminu wypożyczenia" style="rounded=1;whiteSpace=wrap;html=1;absoluteArcSize=1;arcSize=14;strokeWidth=2;" vertex="1" parent="cbTGLAT4hZCvBpp4nzG0-11">
          <mxGeometry x="155" y="215" width="240" height="41" as="geometry" />
        </mxCell>
        <mxCell id="cbTGLAT4hZCvBpp4nzG0-19" style="edgeStyle=orthogonalEdgeStyle;rounded=0;orthogonalLoop=1;jettySize=auto;html=1;exitX=1;exitY=0.5;exitDx=0;exitDy=0;exitPerimeter=0;entryX=0.5;entryY=0;entryDx=0;entryDy=0;" edge="1" parent="cbTGLAT4hZCvBpp4nzG0-11" source="cbTGLAT4hZCvBpp4nzG0-16" target="cbTGLAT4hZCvBpp4nzG0-21">
          <mxGeometry relative="1" as="geometry">
            <mxPoint x="399.99999999999955" y="454.9999999999998" as="targetPoint" />
          </mxGeometry>
        </mxCell>
        <mxCell id="cbTGLAT4hZCvBpp4nzG0-20" value="TAK" style="edgeLabel;html=1;align=center;verticalAlign=middle;resizable=0;points=[];" vertex="1" connectable="0" parent="cbTGLAT4hZCvBpp4nzG0-19">
          <mxGeometry x="-0.0309" y="-2" relative="1" as="geometry">
            <mxPoint x="12" y="-29" as="offset" />
          </mxGeometry>
        </mxCell>
        <mxCell id="cbTGLAT4hZCvBpp4nzG0-16" value="Czy zostało&lt;br&gt;mniej niż&lt;br&gt;3dni do końca terminu" style="strokeWidth=2;html=1;shape=mxgraph.flowchart.decision;whiteSpace=wrap;" vertex="1" parent="cbTGLAT4hZCvBpp4nzG0-11">
          <mxGeometry x="177.5" y="285" width="195" height="141" as="geometry" />
        </mxCell>
        <mxCell id="cbTGLAT4hZCvBpp4nzG0-17" style="edgeStyle=orthogonalEdgeStyle;rounded=0;orthogonalLoop=1;jettySize=auto;html=1;exitX=0.5;exitY=1;exitDx=0;exitDy=0;entryX=0.5;entryY=0;entryDx=0;entryDy=0;entryPerimeter=0;" edge="1" parent="cbTGLAT4hZCvBpp4nzG0-11" source="cbTGLAT4hZCvBpp4nzG0-15" target="cbTGLAT4hZCvBpp4nzG0-16">
          <mxGeometry relative="1" as="geometry" />
        </mxCell>
        <mxCell id="cbTGLAT4hZCvBpp4nzG0-21" value="Wysłanie przypomnienia o zwrocie" style="rounded=1;whiteSpace=wrap;html=1;absoluteArcSize=1;arcSize=14;strokeWidth=2;" vertex="1" parent="cbTGLAT4hZCvBpp4nzG0-11">
          <mxGeometry x="155" y="489" width="240" height="41" as="geometry" />
        </mxCell>
        <mxCell id="cbTGLAT4hZCvBpp4nzG0-30" value="" style="verticalLabelPosition=bottom;verticalAlign=top;html=1;shape=mxgraph.flowchart.collate;" vertex="1" parent="cbTGLAT4hZCvBpp4nzG0-11">
          <mxGeometry x="260" y="95" width="30" height="41" as="geometry" />
        </mxCell>
        <mxCell id="cbTGLAT4hZCvBpp4nzG0-32" style="edgeStyle=orthogonalEdgeStyle;rounded=0;orthogonalLoop=1;jettySize=auto;html=1;" edge="1" parent="cbTGLAT4hZCvBpp4nzG0-11" source="cbTGLAT4hZCvBpp4nzG0-31" target="cbTGLAT4hZCvBpp4nzG0-15">
          <mxGeometry relative="1" as="geometry" />
        </mxCell>
        <mxCell id="cbTGLAT4hZCvBpp4nzG0-31" value="Każdego dnia&lt;br&gt;o 00:00 AM" style="text;html=1;align=center;verticalAlign=middle;resizable=0;points=[];autosize=1;strokeColor=none;fillColor=none;" vertex="1" parent="cbTGLAT4hZCvBpp4nzG0-11">
          <mxGeometry x="224.99999999999955" y="130" width="100" height="40" as="geometry" />
        </mxCell>
        <mxCell id="cbTGLAT4hZCvBpp4nzG0-34" value="" style="ellipse;shape=doubleEllipse;whiteSpace=wrap;html=1;aspect=fixed;fillColor=#000000;" vertex="1" parent="cbTGLAT4hZCvBpp4nzG0-11">
          <mxGeometry x="260" y="29" width="31" height="31" as="geometry" />
        </mxCell>
        <mxCell id="cbTGLAT4hZCvBpp4nzG0-36" style="edgeStyle=orthogonalEdgeStyle;rounded=0;orthogonalLoop=1;jettySize=auto;html=1;exitX=0.5;exitY=1;exitDx=0;exitDy=0;entryX=0.5;entryY=0;entryDx=0;entryDy=0;entryPerimeter=0;" edge="1" parent="cbTGLAT4hZCvBpp4nzG0-11" source="cbTGLAT4hZCvBpp4nzG0-34" target="cbTGLAT4hZCvBpp4nzG0-30">
          <mxGeometry relative="1" as="geometry" />
        </mxCell>
        <mxCell id="cbTGLAT4hZCvBpp4nzG0-100" style="edgeStyle=orthogonalEdgeStyle;rounded=0;orthogonalLoop=1;jettySize=auto;html=1;exitX=0;exitY=0.5;exitDx=0;exitDy=0;exitPerimeter=0;entryX=1;entryY=0.5;entryDx=0;entryDy=0;" edge="1" parent="cbTGLAT4hZCvBpp4nzG0-11" source="cbTGLAT4hZCvBpp4nzG0-37" target="cbTGLAT4hZCvBpp4nzG0-101">
          <mxGeometry relative="1" as="geometry">
            <mxPoint x="220.5" y="1390.5294117647059" as="targetPoint" />
          </mxGeometry>
        </mxCell>
        <mxCell id="cbTGLAT4hZCvBpp4nzG0-102" value="NIE" style="edgeLabel;html=1;align=center;verticalAlign=middle;resizable=0;points=[];" vertex="1" connectable="0" parent="cbTGLAT4hZCvBpp4nzG0-100">
          <mxGeometry x="-0.0592" y="-3" relative="1" as="geometry">
            <mxPoint as="offset" />
          </mxGeometry>
        </mxCell>
        <mxCell id="cbTGLAT4hZCvBpp4nzG0-37" value="Czy zwrot &lt;br&gt;nastąpił&lt;br&gt;na czas" style="strokeWidth=2;html=1;shape=mxgraph.flowchart.decision;whiteSpace=wrap;" vertex="1" parent="cbTGLAT4hZCvBpp4nzG0-11">
          <mxGeometry x="237.99999999999955" y="1460.5" width="100" height="100" as="geometry" />
        </mxCell>
        <mxCell id="cbTGLAT4hZCvBpp4nzG0-72" style="edgeStyle=orthogonalEdgeStyle;rounded=0;orthogonalLoop=1;jettySize=auto;html=1;exitX=0.5;exitY=1;exitDx=0;exitDy=0;entryX=0.5;entryY=0;entryDx=0;entryDy=0;" edge="1" parent="cbTGLAT4hZCvBpp4nzG0-11" source="cbTGLAT4hZCvBpp4nzG0-70" target="cbTGLAT4hZCvBpp4nzG0-74">
          <mxGeometry relative="1" as="geometry">
            <mxPoint x="255.5" y="1849.4999999999995" as="targetPoint" />
          </mxGeometry>
        </mxCell>
        <mxCell id="cbTGLAT4hZCvBpp4nzG0-70" value="Zmiana statusu wypożyczenia&lt;br&gt;na archiwalny" style="rounded=1;whiteSpace=wrap;html=1;absoluteArcSize=1;arcSize=14;strokeWidth=2;" vertex="1" parent="cbTGLAT4hZCvBpp4nzG0-11">
          <mxGeometry x="135.5" y="1739.5" width="240" height="41" as="geometry" />
        </mxCell>
        <mxCell id="cbTGLAT4hZCvBpp4nzG0-74" value="" style="shape=ellipse;html=1;dashed=0;whiteSpace=wrap;aspect=fixed;strokeWidth=5;perimeter=ellipsePerimeter;" vertex="1" parent="cbTGLAT4hZCvBpp4nzG0-11">
          <mxGeometry x="240.5" y="1809.5" width="30" height="30" as="geometry" />
        </mxCell>
        <mxCell id="cbTGLAT4hZCvBpp4nzG0-122" style="edgeStyle=orthogonalEdgeStyle;rounded=0;orthogonalLoop=1;jettySize=auto;html=1;exitX=0.5;exitY=1;exitDx=0;exitDy=0;entryX=0.5;entryY=0;entryDx=0;entryDy=0;" edge="1" parent="cbTGLAT4hZCvBpp4nzG0-11" source="cbTGLAT4hZCvBpp4nzG0-101" target="cbTGLAT4hZCvBpp4nzG0-121">
          <mxGeometry relative="1" as="geometry">
            <mxPoint x="90.0714285714289" y="1560" as="targetPoint" />
          </mxGeometry>
        </mxCell>
        <mxCell id="cbTGLAT4hZCvBpp4nzG0-101" value="Naliczenie kary za przekroczenia terminu" style="rounded=1;whiteSpace=wrap;html=1;absoluteArcSize=1;arcSize=14;strokeWidth=2;" vertex="1" parent="cbTGLAT4hZCvBpp4nzG0-11">
          <mxGeometry x="20.5" y="1490" width="140" height="41" as="geometry" />
        </mxCell>
        <mxCell id="cbTGLAT4hZCvBpp4nzG0-112" style="edgeStyle=orthogonalEdgeStyle;rounded=0;orthogonalLoop=1;jettySize=auto;html=1;entryX=0.5;entryY=0;entryDx=0;entryDy=0;entryPerimeter=0;" edge="1" parent="cbTGLAT4hZCvBpp4nzG0-11" source="cbTGLAT4hZCvBpp4nzG0-24" target="cbTGLAT4hZCvBpp4nzG0-113">
          <mxGeometry relative="1" as="geometry">
            <mxPoint x="70" y="690" as="targetPoint" />
            <Array as="points">
              <mxPoint x="70" y="646" />
              <mxPoint x="70" y="1059" />
            </Array>
          </mxGeometry>
        </mxCell>
        <mxCell id="cbTGLAT4hZCvBpp4nzG0-120" value="NIE" style="edgeLabel;html=1;align=center;verticalAlign=middle;resizable=0;points=[];" vertex="1" connectable="0" parent="cbTGLAT4hZCvBpp4nzG0-112">
          <mxGeometry x="-0.4242" y="3" relative="1" as="geometry">
            <mxPoint as="offset" />
          </mxGeometry>
        </mxCell>
        <mxCell id="cbTGLAT4hZCvBpp4nzG0-24" value="Czy nastąpił zwrot lub&lt;br&gt;przedluzenie?" style="strokeWidth=2;html=1;shape=mxgraph.flowchart.decision;whiteSpace=wrap;" vertex="1" parent="cbTGLAT4hZCvBpp4nzG0-11">
          <mxGeometry x="202.5" y="580" width="145" height="131" as="geometry" />
        </mxCell>
        <mxCell id="cbTGLAT4hZCvBpp4nzG0-27" value="Czy nastąpił zwrot?" style="strokeWidth=2;html=1;shape=mxgraph.flowchart.decision;whiteSpace=wrap;" vertex="1" parent="cbTGLAT4hZCvBpp4nzG0-11">
          <mxGeometry x="225.49999999999955" y="745" width="100" height="100" as="geometry" />
        </mxCell>
        <mxCell id="cbTGLAT4hZCvBpp4nzG0-28" style="edgeStyle=orthogonalEdgeStyle;rounded=0;orthogonalLoop=1;jettySize=auto;html=1;exitX=1;exitY=0.5;exitDx=0;exitDy=0;exitPerimeter=0;entryX=0.5;entryY=0;entryDx=0;entryDy=0;entryPerimeter=0;" edge="1" parent="cbTGLAT4hZCvBpp4nzG0-11" source="cbTGLAT4hZCvBpp4nzG0-24" target="cbTGLAT4hZCvBpp4nzG0-27">
          <mxGeometry relative="1" as="geometry" />
        </mxCell>
        <mxCell id="cbTGLAT4hZCvBpp4nzG0-29" value="TAK" style="edgeLabel;html=1;align=center;verticalAlign=middle;resizable=0;points=[];" vertex="1" connectable="0" parent="cbTGLAT4hZCvBpp4nzG0-28">
          <mxGeometry x="-0.3997" y="-2" relative="1" as="geometry">
            <mxPoint as="offset" />
          </mxGeometry>
        </mxCell>
        <mxCell id="cbTGLAT4hZCvBpp4nzG0-79" value="Czy próba&lt;br&gt;przedłuzenia&lt;br&gt;terminu" style="strokeWidth=2;html=1;shape=mxgraph.flowchart.decision;whiteSpace=wrap;" vertex="1" parent="cbTGLAT4hZCvBpp4nzG0-11">
          <mxGeometry x="137.99999999999955" y="880" width="100" height="100" as="geometry" />
        </mxCell>
        <mxCell id="cbTGLAT4hZCvBpp4nzG0-77" style="edgeStyle=orthogonalEdgeStyle;rounded=0;orthogonalLoop=1;jettySize=auto;html=1;exitX=0;exitY=0.5;exitDx=0;exitDy=0;exitPerimeter=0;entryX=0.5;entryY=0;entryDx=0;entryDy=0;entryPerimeter=0;" edge="1" parent="cbTGLAT4hZCvBpp4nzG0-11" source="cbTGLAT4hZCvBpp4nzG0-27" target="cbTGLAT4hZCvBpp4nzG0-79">
          <mxGeometry relative="1" as="geometry">
            <mxPoint x="819.9999999999995" y="909.9999999999995" as="targetPoint" />
          </mxGeometry>
        </mxCell>
        <mxCell id="cbTGLAT4hZCvBpp4nzG0-78" value="NIE" style="edgeLabel;html=1;align=center;verticalAlign=middle;resizable=0;points=[];" vertex="1" connectable="0" parent="cbTGLAT4hZCvBpp4nzG0-77">
          <mxGeometry x="-0.5459" y="3" relative="1" as="geometry">
            <mxPoint as="offset" />
          </mxGeometry>
        </mxCell>
        <mxCell id="cbTGLAT4hZCvBpp4nzG0-91" style="edgeStyle=orthogonalEdgeStyle;rounded=0;orthogonalLoop=1;jettySize=auto;html=1;exitX=0;exitY=0.5;exitDx=0;exitDy=0;exitPerimeter=0;entryX=0.5;entryY=0;entryDx=0;entryDy=0;" edge="1" parent="cbTGLAT4hZCvBpp4nzG0-11" source="cbTGLAT4hZCvBpp4nzG0-82" target="cbTGLAT4hZCvBpp4nzG0-93">
          <mxGeometry relative="1" as="geometry">
            <mxPoint x="-112" y="1300" as="targetPoint" />
          </mxGeometry>
        </mxCell>
        <mxCell id="cbTGLAT4hZCvBpp4nzG0-92" value="NIE" style="edgeLabel;html=1;align=center;verticalAlign=middle;resizable=0;points=[];" vertex="1" connectable="0" parent="cbTGLAT4hZCvBpp4nzG0-91">
          <mxGeometry x="-0.4835" y="1" relative="1" as="geometry">
            <mxPoint as="offset" />
          </mxGeometry>
        </mxCell>
        <mxCell id="cbTGLAT4hZCvBpp4nzG0-82" value="Czy więcej niż 2&lt;br&gt;próby przedłużenia&lt;br&gt;terminu" style="strokeWidth=2;html=1;shape=mxgraph.flowchart.decision;whiteSpace=wrap;" vertex="1" parent="cbTGLAT4hZCvBpp4nzG0-11">
          <mxGeometry x="305.5" y="1194.5" width="124.5" height="120" as="geometry" />
        </mxCell>
        <mxCell id="cbTGLAT4hZCvBpp4nzG0-89" value="" style="shape=ellipse;html=1;dashed=0;whiteSpace=wrap;aspect=fixed;strokeWidth=5;perimeter=ellipsePerimeter;" vertex="1" parent="cbTGLAT4hZCvBpp4nzG0-11">
          <mxGeometry x="347.5" y="1390" width="30" height="30" as="geometry" />
        </mxCell>
        <mxCell id="cbTGLAT4hZCvBpp4nzG0-150" style="edgeStyle=orthogonalEdgeStyle;rounded=0;orthogonalLoop=1;jettySize=auto;html=1;exitX=0.5;exitY=1;exitDx=0;exitDy=0;entryX=0.5;entryY=0;entryDx=0;entryDy=0;" edge="1" parent="cbTGLAT4hZCvBpp4nzG0-11" source="cbTGLAT4hZCvBpp4nzG0-93" target="cbTGLAT4hZCvBpp4nzG0-89">
          <mxGeometry relative="1" as="geometry" />
        </mxCell>
        <mxCell id="cbTGLAT4hZCvBpp4nzG0-93" value="Przedłużenie terminu wypożyczenia o kolejny okres" style="rounded=1;whiteSpace=wrap;html=1;absoluteArcSize=1;arcSize=14;strokeWidth=2;" vertex="1" parent="cbTGLAT4hZCvBpp4nzG0-11">
          <mxGeometry x="150" y="1284.5" width="170" height="41" as="geometry" />
        </mxCell>
        <mxCell id="cbTGLAT4hZCvBpp4nzG0-83" style="edgeStyle=orthogonalEdgeStyle;rounded=0;orthogonalLoop=1;jettySize=auto;html=1;exitX=1;exitY=0.5;exitDx=0;exitDy=0;exitPerimeter=0;entryX=0.5;entryY=0;entryDx=0;entryDy=0;entryPerimeter=0;" edge="1" parent="cbTGLAT4hZCvBpp4nzG0-11" source="cbTGLAT4hZCvBpp4nzG0-79" target="cbTGLAT4hZCvBpp4nzG0-82">
          <mxGeometry relative="1" as="geometry">
            <mxPoint x="469.99999999999955" y="1250" as="targetPoint" />
            <Array as="points">
              <mxPoint x="250" y="930" />
              <mxPoint x="250" y="1180" />
              <mxPoint x="368" y="1180" />
            </Array>
          </mxGeometry>
        </mxCell>
        <mxCell id="cbTGLAT4hZCvBpp4nzG0-99" value="TAK" style="edgeLabel;html=1;align=center;verticalAlign=middle;resizable=0;points=[];" vertex="1" connectable="0" parent="cbTGLAT4hZCvBpp4nzG0-83">
          <mxGeometry x="-0.6439" y="2" relative="1" as="geometry">
            <mxPoint as="offset" />
          </mxGeometry>
        </mxCell>
        <mxCell id="cbTGLAT4hZCvBpp4nzG0-114" style="edgeStyle=orthogonalEdgeStyle;rounded=0;orthogonalLoop=1;jettySize=auto;html=1;exitX=1;exitY=0.5;exitDx=0;exitDy=0;exitPerimeter=0;entryX=0.5;entryY=0;entryDx=0;entryDy=0;" edge="1" parent="cbTGLAT4hZCvBpp4nzG0-11" source="cbTGLAT4hZCvBpp4nzG0-113" target="cbTGLAT4hZCvBpp4nzG0-101">
          <mxGeometry relative="1" as="geometry">
            <mxPoint x="110" y="1240" as="targetPoint" />
            <Array as="points">
              <mxPoint x="200" y="1155" />
              <mxPoint x="200" y="1240" />
              <mxPoint x="90" y="1240" />
            </Array>
          </mxGeometry>
        </mxCell>
        <mxCell id="cbTGLAT4hZCvBpp4nzG0-115" value="TAK" style="edgeLabel;html=1;align=center;verticalAlign=middle;resizable=0;points=[];" vertex="1" connectable="0" parent="cbTGLAT4hZCvBpp4nzG0-114">
          <mxGeometry x="-0.6111" y="-3" relative="1" as="geometry">
            <mxPoint as="offset" />
          </mxGeometry>
        </mxCell>
        <mxCell id="cbTGLAT4hZCvBpp4nzG0-116" style="edgeStyle=orthogonalEdgeStyle;rounded=0;orthogonalLoop=1;jettySize=auto;html=1;exitX=0;exitY=0.5;exitDx=0;exitDy=0;exitPerimeter=0;entryX=0;entryY=0.5;entryDx=0;entryDy=0;" edge="1" parent="cbTGLAT4hZCvBpp4nzG0-11" source="cbTGLAT4hZCvBpp4nzG0-113" target="cbTGLAT4hZCvBpp4nzG0-117">
          <mxGeometry relative="1" as="geometry">
            <mxPoint x="27.571428571428896" y="1060.5" as="targetPoint" />
            <Array as="points">
              <mxPoint x="23" y="1155" />
            </Array>
          </mxGeometry>
        </mxCell>
        <mxCell id="cbTGLAT4hZCvBpp4nzG0-118" value="NIE" style="edgeLabel;html=1;align=center;verticalAlign=middle;resizable=0;points=[];" vertex="1" connectable="0" parent="cbTGLAT4hZCvBpp4nzG0-116">
          <mxGeometry x="-0.1098" y="-2" relative="1" as="geometry">
            <mxPoint as="offset" />
          </mxGeometry>
        </mxCell>
        <mxCell id="cbTGLAT4hZCvBpp4nzG0-113" value="Czy status&lt;br&gt;&quot;po terminie&quot;" style="strokeWidth=2;html=1;shape=mxgraph.flowchart.decision;whiteSpace=wrap;" vertex="1" parent="cbTGLAT4hZCvBpp4nzG0-11">
          <mxGeometry x="32.5" y="1090" width="145" height="131" as="geometry" />
        </mxCell>
        <mxCell id="cbTGLAT4hZCvBpp4nzG0-117" value="" style="shape=ellipse;html=1;dashed=0;whiteSpace=wrap;aspect=fixed;strokeWidth=5;perimeter=ellipsePerimeter;direction=south;" vertex="1" parent="cbTGLAT4hZCvBpp4nzG0-11">
          <mxGeometry x="8" y="1284.5" width="30" height="30" as="geometry" />
        </mxCell>
        <mxCell id="cbTGLAT4hZCvBpp4nzG0-121" value="" style="shape=ellipse;html=1;dashed=0;whiteSpace=wrap;aspect=fixed;strokeWidth=5;perimeter=ellipsePerimeter;" vertex="1" parent="cbTGLAT4hZCvBpp4nzG0-11">
          <mxGeometry x="75.5" y="1570" width="30" height="30" as="geometry" />
        </mxCell>
        <mxCell id="cbTGLAT4hZCvBpp4nzG0-132" style="edgeStyle=orthogonalEdgeStyle;rounded=0;orthogonalLoop=1;jettySize=auto;html=1;exitX=1;exitY=0.5;exitDx=0;exitDy=0;exitPerimeter=0;" edge="1" parent="cbTGLAT4hZCvBpp4nzG0-11" source="cbTGLAT4hZCvBpp4nzG0-128" target="cbTGLAT4hZCvBpp4nzG0-37">
          <mxGeometry relative="1" as="geometry">
            <Array as="points">
              <mxPoint x="536" y="880" />
              <mxPoint x="536" y="1440" />
              <mxPoint x="288" y="1440" />
            </Array>
          </mxGeometry>
        </mxCell>
        <mxCell id="cbTGLAT4hZCvBpp4nzG0-133" value="TAK" style="edgeLabel;html=1;align=center;verticalAlign=middle;resizable=0;points=[];" vertex="1" connectable="0" parent="cbTGLAT4hZCvBpp4nzG0-132">
          <mxGeometry x="-0.9452" y="-4" relative="1" as="geometry">
            <mxPoint as="offset" />
          </mxGeometry>
        </mxCell>
        <mxCell id="cbTGLAT4hZCvBpp4nzG0-134" style="edgeStyle=orthogonalEdgeStyle;rounded=0;orthogonalLoop=1;jettySize=auto;html=1;exitX=0;exitY=0.5;exitDx=0;exitDy=0;exitPerimeter=0;entryX=0.5;entryY=0;entryDx=0;entryDy=0;" edge="1" parent="cbTGLAT4hZCvBpp4nzG0-11" source="cbTGLAT4hZCvBpp4nzG0-128" target="cbTGLAT4hZCvBpp4nzG0-135">
          <mxGeometry relative="1" as="geometry">
            <mxPoint x="356" y="970" as="targetPoint" />
          </mxGeometry>
        </mxCell>
        <mxCell id="cbTGLAT4hZCvBpp4nzG0-128" value="Czy waga&lt;br&gt;prawidłowa" style="strokeWidth=2;html=1;shape=mxgraph.flowchart.decision;whiteSpace=wrap;" vertex="1" parent="cbTGLAT4hZCvBpp4nzG0-11">
          <mxGeometry x="375.5" y="830" width="100" height="100" as="geometry" />
        </mxCell>
        <mxCell id="cbTGLAT4hZCvBpp4nzG0-135" value="Naliczenie kary za zwrot niekompletnych puzzli" style="rounded=1;whiteSpace=wrap;html=1;absoluteArcSize=1;arcSize=14;strokeWidth=2;" vertex="1" parent="cbTGLAT4hZCvBpp4nzG0-11">
          <mxGeometry x="282.75" y="990" width="137.25" height="41" as="geometry" />
        </mxCell>
        <mxCell id="cbTGLAT4hZCvBpp4nzG0-12" value="Użytkownik" style="swimlane;startSize=20;html=1;" vertex="1" parent="cbTGLAT4hZCvBpp4nzG0-10">
          <mxGeometry x="550" y="20" width="550" height="2120" as="geometry" />
        </mxCell>
        <mxCell id="cbTGLAT4hZCvBpp4nzG0-22" value="Otrzymanie przypomnienia o zwrocie" style="rounded=1;whiteSpace=wrap;html=1;absoluteArcSize=1;arcSize=14;strokeWidth=2;" vertex="1" parent="cbTGLAT4hZCvBpp4nzG0-12">
          <mxGeometry x="155" y="489" width="240" height="41" as="geometry" />
        </mxCell>
        <mxCell id="cbTGLAT4hZCvBpp4nzG0-13" value="Pracownik" style="swimlane;startSize=20;html=1;" vertex="1" parent="cbTGLAT4hZCvBpp4nzG0-10">
          <mxGeometry x="1100" y="20" width="550" height="2120" as="geometry" />
        </mxCell>
        <mxCell id="cbTGLAT4hZCvBpp4nzG0-127" style="edgeStyle=orthogonalEdgeStyle;rounded=0;orthogonalLoop=1;jettySize=auto;html=1;exitX=0.5;exitY=1;exitDx=0;exitDy=0;entryX=0.5;entryY=0;entryDx=0;entryDy=0;" edge="1" parent="cbTGLAT4hZCvBpp4nzG0-13" source="cbTGLAT4hZCvBpp4nzG0-40" target="cbTGLAT4hZCvBpp4nzG0-126">
          <mxGeometry relative="1" as="geometry" />
        </mxCell>
        <mxCell id="cbTGLAT4hZCvBpp4nzG0-40" value="Zeskanowanie kodu QR" style="rounded=1;whiteSpace=wrap;html=1;absoluteArcSize=1;arcSize=14;strokeWidth=2;" vertex="1" parent="cbTGLAT4hZCvBpp4nzG0-13">
          <mxGeometry x="180" y="774.5" width="240" height="41" as="geometry" />
        </mxCell>
        <mxCell id="cbTGLAT4hZCvBpp4nzG0-67" value="Wycofanie wypożyczenia z systemu" style="rounded=1;whiteSpace=wrap;html=1;absoluteArcSize=1;arcSize=14;strokeWidth=2;" vertex="1" parent="cbTGLAT4hZCvBpp4nzG0-13">
          <mxGeometry x="180" y="1630" width="240" height="41" as="geometry" />
        </mxCell>
        <mxCell id="cbTGLAT4hZCvBpp4nzG0-126" value="Zważenie puzzli" style="rounded=1;whiteSpace=wrap;html=1;absoluteArcSize=1;arcSize=14;strokeWidth=2;" vertex="1" parent="cbTGLAT4hZCvBpp4nzG0-13">
          <mxGeometry x="180" y="830" width="240" height="41" as="geometry" />
        </mxCell>
        <mxCell id="cbTGLAT4hZCvBpp4nzG0-69" style="edgeStyle=orthogonalEdgeStyle;rounded=0;orthogonalLoop=1;jettySize=auto;html=1;exitX=0;exitY=0.5;exitDx=0;exitDy=0;entryX=0.5;entryY=0;entryDx=0;entryDy=0;" edge="1" parent="cbTGLAT4hZCvBpp4nzG0-10" source="cbTGLAT4hZCvBpp4nzG0-67" target="cbTGLAT4hZCvBpp4nzG0-70">
          <mxGeometry relative="1" as="geometry">
            <mxPoint x="269.99999999999955" y="1121" as="targetPoint" />
          </mxGeometry>
        </mxCell>
        <mxCell id="cbTGLAT4hZCvBpp4nzG0-25" style="edgeStyle=orthogonalEdgeStyle;rounded=0;orthogonalLoop=1;jettySize=auto;html=1;exitX=0.5;exitY=1;exitDx=0;exitDy=0;entryX=0.5;entryY=0;entryDx=0;entryDy=0;entryPerimeter=0;" edge="1" parent="cbTGLAT4hZCvBpp4nzG0-10" source="cbTGLAT4hZCvBpp4nzG0-22" target="cbTGLAT4hZCvBpp4nzG0-24">
          <mxGeometry relative="1" as="geometry" />
        </mxCell>
        <mxCell id="cbTGLAT4hZCvBpp4nzG0-129" style="edgeStyle=orthogonalEdgeStyle;rounded=0;orthogonalLoop=1;jettySize=auto;html=1;exitX=0;exitY=0.5;exitDx=0;exitDy=0;entryX=0.5;entryY=0;entryDx=0;entryDy=0;entryPerimeter=0;" edge="1" parent="cbTGLAT4hZCvBpp4nzG0-10" source="cbTGLAT4hZCvBpp4nzG0-126" target="cbTGLAT4hZCvBpp4nzG0-128">
          <mxGeometry relative="1" as="geometry">
            <mxPoint x="466" y="891" as="targetPoint" />
          </mxGeometry>
        </mxCell>
        <mxCell id="cbTGLAT4hZCvBpp4nzG0-139" style="edgeStyle=orthogonalEdgeStyle;rounded=0;orthogonalLoop=1;jettySize=auto;html=1;exitX=1;exitY=0.5;exitDx=0;exitDy=0;exitPerimeter=0;entryX=0.5;entryY=0;entryDx=0;entryDy=0;" edge="1" parent="cbTGLAT4hZCvBpp4nzG0-10" source="cbTGLAT4hZCvBpp4nzG0-37" target="cbTGLAT4hZCvBpp4nzG0-67">
          <mxGeometry relative="1" as="geometry">
            <mxPoint x="1400" y="1657.5" as="targetPoint" />
            <Array as="points">
              <mxPoint x="1400" y="1530" />
            </Array>
          </mxGeometry>
        </mxCell>
        <mxCell id="cbTGLAT4hZCvBpp4nzG0-140" value="TAK" style="edgeLabel;html=1;align=center;verticalAlign=middle;resizable=0;points=[];" vertex="1" connectable="0" parent="cbTGLAT4hZCvBpp4nzG0-139">
          <mxGeometry x="-0.8809" y="1" relative="1" as="geometry">
            <mxPoint as="offset" />
          </mxGeometry>
        </mxCell>
        <mxCell id="cbTGLAT4hZCvBpp4nzG0-153" style="edgeStyle=orthogonalEdgeStyle;rounded=0;orthogonalLoop=1;jettySize=auto;html=1;exitX=0.5;exitY=1;exitDx=0;exitDy=0;entryX=0.702;entryY=0.024;entryDx=0;entryDy=0;entryPerimeter=0;" edge="1" parent="cbTGLAT4hZCvBpp4nzG0-10" source="cbTGLAT4hZCvBpp4nzG0-135" target="cbTGLAT4hZCvBpp4nzG0-67">
          <mxGeometry relative="1" as="geometry">
            <Array as="points">
              <mxPoint x="351" y="1100" />
              <mxPoint x="1448" y="1100" />
            </Array>
          </mxGeometry>
        </mxCell>
        <mxCell id="cbTGLAT4hZCvBpp4nzG0-88" value="Odmowa przedłużenia terminu" style="rounded=1;whiteSpace=wrap;html=1;absoluteArcSize=1;arcSize=14;strokeWidth=2;" vertex="1" parent="1">
          <mxGeometry x="414" y="51" width="110" height="41" as="geometry" />
        </mxCell>
        <mxCell id="cbTGLAT4hZCvBpp4nzG0-86" style="edgeStyle=orthogonalEdgeStyle;rounded=0;orthogonalLoop=1;jettySize=auto;html=1;exitX=1;exitY=0.5;exitDx=0;exitDy=0;exitPerimeter=0;entryX=0.5;entryY=0;entryDx=0;entryDy=0;" edge="1" parent="1" source="cbTGLAT4hZCvBpp4nzG0-82" target="cbTGLAT4hZCvBpp4nzG0-88">
          <mxGeometry relative="1" as="geometry">
            <mxPoint x="242" y="69.99999999999955" as="targetPoint" />
          </mxGeometry>
        </mxCell>
        <mxCell id="cbTGLAT4hZCvBpp4nzG0-87" value="TAK" style="edgeLabel;html=1;align=center;verticalAlign=middle;resizable=0;points=[];" vertex="1" connectable="0" parent="cbTGLAT4hZCvBpp4nzG0-86">
          <mxGeometry x="0.038" relative="1" as="geometry">
            <mxPoint as="offset" />
          </mxGeometry>
        </mxCell>
        <mxCell id="cbTGLAT4hZCvBpp4nzG0-152" style="edgeStyle=orthogonalEdgeStyle;rounded=0;orthogonalLoop=1;jettySize=auto;html=1;exitX=0.5;exitY=1;exitDx=0;exitDy=0;entryX=0.5;entryY=0;entryDx=0;entryDy=0;" edge="1" parent="1">
          <mxGeometry relative="1" as="geometry">
            <mxPoint x="469" y="92.99999999999955" as="sourcePoint" />
            <mxPoint x="366.5" y="160" as="targetPoint" />
            <Array as="points">
              <mxPoint x="469" y="128" />
              <mxPoint x="367" y="128" />
            </Array>
          </mxGeometry>
        </mxCell>
      </root>
    </mxGraphModel>
  </diagram>
</mxfile>
